# xmcd
#
# Track frame offsets:
#	150
#	49577
#	88945
#	133127
#	181155
#	209562
#	240915
#	275177
#
# Disc length: 4644 seconds
#
# Revision: 2
# Processed by: cddbd v1.5.1PL0 Copyright (c) Steve Scherf et al.
# Submitted via: audiograbber 1.83.01
#
DISCID=74122208
DTITLE=Eddie Cotton - Live at the Alamo Theatre
DYEAR=2000
DGENRE=Blues
TTITLE0=Born Under A Bad Sign
TTITLE1=Same Thing
TTITLE2=Don't Give Up On A Love Affair
TTITLE3=Shake For Me
TTITLE4=Why Must I Cry
TTITLE5=She's Gone
TTITLE6=You're The Girl
TTITLE7=Walkin' The Backstreets And Cryin'
EXTD=
EXTT0=
EXTT1=
EXTT2=
EXTT3=
EXTT4=
EXTT5=
EXTT6=
EXTT7=
PLAYORDER=
